# xmcd CD database file generated by Grip 3.3.1
# 
# Track frame offsets:
#       150
#       13867
#       32890
#       46957
#       51342
#       72440
#       77417
#       84095
#       106097
#       124027
#       139835
#       150940
# 
# Disc length: 2237 seconds
# 
# Revision: 2
# Processed by: cddbd v1.5.2PL0 Copyright (c) Steve Scherf et al.
# Submitted via: Grip 3.3.1
# 
DISCID=8e08bb0c
DTITLE=Janis Joplin - Bonus Tracks
DYEAR=1900
DGENRE=Blues
TTITLE0=Magic of Love
TTITLE1=Misery'n
TTITLE2=One Night Stand
TTITLE3=Harry
TTITLE4=Farewell Song
TTITLE5=Amazing Grace
TTITLE6=Hi-Heel Sneakers
TTITLE7=Catch Me Daddy
TTITLE8=Cry Baby
TTITLE9=A Woman Left Lonely
TTITLE10=Buried Alive in the Blues
TTITLE11=My Baby
EXTD=
EXTT0=
EXTT1=
EXTT2=
EXTT3=
EXTT4=
EXTT5=
EXTT6=
EXTT7=
EXTT8=
EXTT9=
EXTT10=
EXTT11=
PLAYORDER=
